<?xml version="1.0" standalone="no"?>
<!DOCTYPE svg PUBLIC "-//W3C//DTD SVG 20010904//EN"
 "http://www.w3.org/TR/2001/REC-SVG-20010904/DTD/svg10.dtd">
<svg version="1.0" xmlns="http://www.w3.org/2000/svg"
 width="1280.000000pt" height="1280.000000pt" viewBox="0 0 1280.000000 1280.000000"
 preserveAspectRatio="xMidYMid meet">
<metadata>
Created by potrace 1.16, written by Peter Selinger 2001-2019
</metadata>
<g transform="translate(0.000000,1280.000000) scale(0.100000,-0.100000)"
fill="#000000" stroke="none">
<path d="M6062 12630 c-41 -11 -106 -36 -145 -57 -67 -35 -253 -218 -2933
-2898 -2826 -2825 -2862 -2861 -2902 -2940 -59 -117 -76 -189 -76 -325 0 -170
39 -292 135 -430 32 -46 3658 -3664 5229 -5216 465 -460 478 -472 561 -512
117 -58 192 -76 319 -75 109 0 191 16 285 56 118 49 186 106 489 406 371 368
436 441 486 545 117 244 81 547 -91 767 -24 30 -818 784 -1763 1675 l-1719
1619 4149 5 c3922 5 4152 6 4209 23 121 35 223 94 304 176 85 85 130 155 169
263 l27 73 3 592 c3 666 4 661 -70 812 -76 159 -231 282 -423 338 -57 17 -287
18 -4214 23 l-4154 5 1704 1618 c937 890 1728 1646 1757 1680 60 70 122 190
148 287 22 82 25 281 5 359 -21 84 -59 169 -106 241 -28 43 -166 187 -406 426
l-364 362 -95 45 c-52 26 -124 53 -160 61 -93 22 -266 20 -358 -4z"/>
</g>
</svg>
