<svg width="54" height="56" viewBox="0 0 54 56" fill="none" xmlns="http://www.w3.org/2000/svg">
<rect x="53" y="55" width="52" height="54" rx="26" transform="rotate(-180 53 55)" stroke="#959EAD" stroke-width="2"/>
<path d="M26.6831 21.0625C26.3706 21.375 26.4019 21.8438 26.6831 22.1562L30.4644 25.75H21.4644C21.0581 25.75 20.7144 26.0625 20.7144 26.5V27.5C20.7144 27.9062 21.0581 28.25 21.4644 28.25H30.4644L26.6831 31.8125C26.4019 32.125 26.3706 32.5938 26.6831 32.9062L27.3706 33.5938C27.6519 33.875 28.1519 33.875 28.4331 33.5938L34.4956 27.5C34.8081 27.2188 34.8081 26.75 34.4956 26.4688L28.4331 20.375C28.1519 20.0938 27.6831 20.0938 27.3706 20.375L26.6831 21.0625Z" fill="#959EAD"/>
</svg>
